<svg width="31" height="31" viewBox="0 0 31 31" fill="none" xmlns="http://www.w3.org/2000/svg">
<path d="M15.5 2.58325C8.42533 2.58325 2.58325 8.42533 2.58325 15.5C2.58325 22.5747 8.42533 28.4166 15.5 28.4166C22.5747 28.4166 28.4166 22.5747 28.4166 15.5C28.4166 8.42533 22.5747 2.58325 15.5 2.58325ZM22.6805 11.1402C22.4425 13.413 21.3639 19.0215 20.8152 21.6829C20.5749 22.8308 20.0985 23.219 19.6392 23.2545C18.6451 23.3353 17.8874 22.584 16.9354 21.9499C15.4703 20.9556 14.6512 20.3265 13.2308 19.3579C11.5876 18.2322 12.6917 17.6161 13.6677 16.6015C13.9322 16.3267 17.9889 12.6122 18.0837 12.2429C18.0953 12.1992 18.106 12.053 18.0157 11.9742C17.9254 11.8954 17.7935 11.9225 17.6975 11.9433C17.5579 11.9725 15.3633 13.3721 11.1137 16.1423C10.5133 16.5559 9.9676 16.7577 9.47659 16.7474C8.93475 16.7362 7.8996 16.4483 7.13017 16.2048C6.18242 15.9052 5.43358 15.7467 5.51675 15.2245C5.56025 14.9534 5.93342 14.6769 6.63625 14.3949C11.1866 12.3424 14.2326 11.0106 15.7741 10.3994C20.17 8.65425 21.1559 8.32825 21.7983 8.31783C21.9222 8.31658 22.1992 8.34817 22.3827 8.49883C22.5243 8.61883 22.5927 8.78242 22.6085 8.95808C22.6458 9.15567 22.6916 9.61083 22.6805 11.1402Z" fill="white"/>
</svg>
