<svg width="146" height="18" viewBox="0 0 146 18" fill="none" xmlns="http://www.w3.org/2000/svg">
<path d="M7.71542 17.5C6.25178 17.5 4.97017 17.1318 3.86959 16.3964C2.77005 15.6611 1.91461 14.6351 1.30329 13.3185C0.690941 12.0019 0.384766 10.4763 0.384766 8.74189C0.384766 7.01468 0.686842 5.49742 1.29092 4.18908C1.90327 2.87247 2.75457 1.84649 3.84687 1.1101C4.94641 0.37474 6.22076 0.00756836 7.66889 0.00756836C8.38157 0.00756836 9.13667 0.150305 9.93417 0.436795C10.7389 0.723285 11.4174 1.10284 11.9667 1.5755L11.0606 3.7702C10.7275 3.34409 10.2475 2.98831 9.62072 2.70182C9.00113 2.4081 8.35776 2.26019 7.69162 2.26019C6.7162 2.26019 5.86391 2.53115 5.13674 3.0731C4.40854 3.61609 3.84272 4.3711 3.44035 5.33813C3.03798 6.3062 2.83629 7.42527 2.83629 8.69534C2.83629 9.98816 3.03798 11.131 3.44035 12.1219C3.851 13.1054 4.42403 13.8718 5.15947 14.4221C5.89491 14.9712 6.75864 15.2464 7.74957 15.2464C8.39296 15.2464 9.02392 15.0953 9.64351 14.7933C10.2703 14.4913 10.7585 14.1076 11.1071 13.6432L12.0132 15.8152C11.4557 16.3106 10.7823 16.7181 9.99207 17.0346C9.2018 17.3449 8.44362 17.5 7.71542 17.5ZM19.4484 17.5C18.2164 17.5 17.1592 17.1473 16.2769 16.443C15.3936 15.7376 14.716 14.7313 14.2433 13.423C13.7717 12.1136 13.5348 10.5539 13.5348 8.74189C13.5348 6.93711 13.7717 5.38157 14.2433 4.0722C14.716 2.76386 15.3936 1.76064 16.2769 1.06458C17.1592 0.35922 18.2164 0.00756836 19.4484 0.00756836C20.6865 0.00756836 21.7519 0.35922 22.6425 1.06458C23.5331 1.76064 24.2147 2.76386 24.6864 4.0722C25.1674 5.38157 25.4074 6.93711 25.4074 8.74189C25.4074 10.5539 25.1674 12.1136 24.6864 13.423C24.2147 14.7313 23.5331 15.7376 22.6425 16.443C21.7519 17.1473 20.6865 17.5 19.4484 17.5ZM19.4484 15.2464C20.2148 15.2464 20.8613 14.9867 21.3878 14.4686C21.9143 13.9494 22.3136 13.2058 22.5846 12.2377C22.8628 11.2696 22.9983 10.105 22.9911 8.74189C22.9828 7.37874 22.8359 6.21313 22.5494 5.24609C22.2711 4.27803 21.8677 3.53854 21.3412 3.02762C20.822 2.51566 20.191 2.26019 19.4484 2.26019C18.7119 2.26019 18.0809 2.52394 17.5544 3.05038C17.0351 3.57681 16.6369 4.32458 16.3576 5.29161C16.0866 6.25967 15.9511 7.40977 15.9511 8.74189C15.9511 10.074 16.0866 11.2272 16.3576 12.2035C16.6369 13.1789 17.0351 13.9297 17.5544 14.4562C18.0809 14.9826 18.7119 15.2464 19.4484 15.2464ZM27.1265 17.3138V0.192717H28.8342L32.8073 7.78932H32.8993L36.8724 0.192717H38.5801V17.3138H36.2455V9.04389L36.2921 5.66393H36.199L33.2252 11.4248H32.4815L29.5076 5.66393H29.4145L29.4611 9.04389V17.3138H27.1265ZM45.0046 17.3138V0.192717H47.4664V17.3138H45.0046ZM41.5188 17.3138V15.1305H50.9523V17.3138H41.5188ZM41.5188 2.37707V0.192717H50.9523V2.37707H41.5188ZM54.2509 17.3138V0.192717H56.0052L61.535 10.0771L62.5797 11.9709H62.6728L62.6149 8.64882V0.192717H64.9846V17.3138H63.2417L57.713 7.39425L56.6558 5.43121H56.5627L56.6206 8.79981V17.3138H54.2509ZM73.8482 17.5C72.5004 17.5 71.3119 17.1318 70.2817 16.3964C69.2597 15.6528 68.458 14.631 67.8767 13.3299C67.3037 12.0288 67.0172 10.5301 67.0172 8.83497C67.0172 7.06122 67.3275 5.51293 67.9471 4.18908C68.5667 2.86419 69.4107 1.83822 70.4792 1.1101C71.5477 0.37474 72.76 0.00756836 74.1151 0.00756836C74.9519 0.00756836 75.7566 0.14615 76.5313 0.4254C77.3133 0.696376 78.0033 1.08009 78.5991 1.5755L77.6929 3.7702C77.3599 3.3596 76.8841 3.00795 76.2645 2.71319C75.6449 2.41118 74.9705 2.26019 74.2433 2.26019C73.2907 2.26019 72.4497 2.53115 71.7226 3.0731C71.0016 3.61609 70.4409 4.37835 70.0375 5.36193C69.6352 6.33724 69.4335 7.4832 69.4335 8.79981C69.4335 10.0616 69.6238 11.1776 70.0034 12.1446C70.382 13.1127 70.9126 13.8718 71.5943 14.4221C72.2759 14.9712 73.0817 15.2464 74.0106 15.2464C74.6457 15.2464 75.1722 15.1264 75.5901 14.8864C76.0163 14.6465 76.3535 14.36 76.6007 14.0269L76.2758 14.6775V10.0306H73.0352V7.85863H78.6456V15.328C78.1346 15.9858 77.453 16.5123 76.6007 16.9074C75.7566 17.3024 74.8391 17.5 73.8482 17.5ZM99.9155 17.5C99.0476 17.5 98.2233 17.3293 97.4413 16.9891C96.6665 16.6478 95.9931 16.1792 95.4201 15.5835C94.847 14.9867 94.4323 14.3021 94.1768 13.5274L96.5113 12.5521C96.6975 13.0858 96.9644 13.5584 97.313 13.969C97.6616 14.3714 98.0608 14.6847 98.5097 14.9092C98.9669 15.1336 99.4428 15.2464 99.9383 15.2464C100.442 15.2464 100.899 15.1336 101.31 14.9092C101.719 14.6847 102.045 14.3755 102.285 13.9804C102.533 13.5853 102.657 13.1323 102.657 12.6214C102.657 12.0402 102.514 11.5644 102.227 11.1931C101.941 10.8135 101.557 10.496 101.077 10.2405C100.604 9.97681 100.086 9.73684 99.5203 9.51964C98.9555 9.30348 98.3856 9.07077 97.8126 8.82358C97.2478 8.56708 96.7285 8.2651 96.2558 7.91759C95.7841 7.56077 95.4004 7.11602 95.1067 6.58131C94.8201 6.0466 94.6763 5.37744 94.6763 4.57175C94.6763 3.6192 94.8894 2.80214 95.3156 2.1216C95.749 1.44002 96.3376 0.916691 97.0813 0.552631C97.825 0.189606 98.6649 0.00756836 99.6021 0.00756836C100.422 0.00756836 101.166 0.143062 101.832 0.414038C102.498 0.685014 103.071 1.06044 103.551 1.54033C104.031 2.01299 104.395 2.55081 104.644 3.15482L102.39 4.0722C102.196 3.68539 101.956 3.35651 101.67 3.08554C101.383 2.80629 101.057 2.59734 100.693 2.45772C100.338 2.31085 99.962 2.23744 99.5669 2.23744C98.9401 2.23744 98.3784 2.42669 97.8829 2.80627C97.3947 3.18584 97.1506 3.7516 97.1506 4.50247C97.1506 5.07545 97.2943 5.5481 97.5809 5.9194C97.8674 6.28346 98.247 6.58959 98.7187 6.83678C99.1987 7.085 99.722 7.31357 100.287 7.52249C100.853 7.73141 101.417 7.95584 101.983 8.19579C102.556 8.43574 103.079 8.73363 103.551 9.09045C104.024 9.43899 104.404 9.88371 104.69 10.4257C104.984 10.9604 105.131 11.6337 105.131 12.4466C105.131 13.4385 104.903 14.3135 104.446 15.0726C103.989 15.8307 103.365 16.4275 102.576 16.8608C101.794 17.287 100.906 17.5 99.9155 17.5ZM113.123 17.5C111.892 17.5 110.835 17.1473 109.952 16.443C109.07 15.7376 108.391 14.7313 107.919 13.423C107.447 12.1136 107.211 10.5539 107.211 8.74189C107.211 6.93711 107.447 5.38157 107.919 4.0722C108.391 2.76386 109.07 1.76064 109.952 1.06458C110.835 0.35922 111.892 0.00756836 113.123 0.00756836C114.363 0.00756836 115.43 0.35922 116.32 1.06458C117.209 1.76064 117.892 2.76386 118.357 4.0722C118.843 5.38157 119.081 6.93711 119.081 8.74189C119.081 10.5539 118.843 12.1136 118.357 13.423C117.892 14.7313 117.209 15.7376 116.32 16.443C115.43 17.1473 114.363 17.5 113.123 17.5ZM113.123 15.2464C113.89 15.2464 114.54 14.9867 115.068 14.4686C115.585 13.9494 115.989 13.2058 116.258 12.2377C116.537 11.2696 116.671 10.105 116.671 8.74189C116.661 7.37874 116.516 6.21313 116.227 5.24609C115.947 4.27803 115.544 3.53854 115.016 3.02762C114.499 2.51566 113.867 2.26019 113.123 2.26019C112.388 2.26019 111.757 2.52394 111.229 3.05038C110.711 3.57681 110.312 4.32458 110.034 5.29161C109.763 6.25967 109.627 7.40977 109.627 8.74189C109.627 10.074 109.763 11.2272 110.034 12.2035C110.312 13.1789 110.711 13.9297 111.229 14.4562C111.757 14.9826 112.388 15.2464 113.123 15.2464ZM126.508 17.5C125.277 17.5 124.222 17.1473 123.333 16.443C122.453 15.7376 121.771 14.7313 121.305 13.423C120.83 12.1136 120.592 10.5539 120.592 8.74189C120.592 6.93711 120.83 5.38157 121.305 4.0722C121.771 2.76386 122.453 1.76064 123.333 1.06458C124.222 0.35922 125.277 0.00756836 126.508 0.00756836C127.749 0.00756836 128.805 0.35922 129.704 1.06458C130.594 1.76064 131.277 2.76386 131.742 4.0722C132.228 5.38157 132.466 6.93711 132.466 8.74189C132.466 10.5539 132.228 12.1136 131.742 13.423C131.277 14.7313 130.594 15.7376 129.704 16.443C128.805 17.1473 127.749 17.5 126.508 17.5ZM126.508 15.2464C127.274 15.2464 127.915 14.9867 128.442 14.4686C128.97 13.9494 129.373 13.2058 129.642 12.2377C129.922 11.2696 130.056 10.105 130.046 8.74189C130.046 7.37874 129.891 6.21313 129.611 5.24609C129.332 4.27803 128.929 3.53854 128.401 3.02762C127.884 2.51566 127.253 2.26019 126.508 2.26019C125.774 2.26019 125.143 2.52394 124.615 3.05038C124.098 3.57681 123.695 4.32458 123.415 5.29161C123.146 6.25967 123.012 7.40977 123.012 8.74189C123.012 10.074 123.146 11.2272 123.415 12.2035C123.695 13.1789 124.098 13.9297 124.615 14.4562C125.143 14.9826 125.774 15.2464 126.508 15.2464ZM134.545 17.3138V0.192717H136.293L141.827 10.0771L142.872 11.9709H142.965L142.903 8.64882V0.192717H145.282V17.3138H143.534L138.01 7.39425L136.945 5.43121H136.852L136.914 8.79981V17.3138H134.545Z" fill="white"/>
</svg>
