<svg width="410" height="19" viewBox="0 0 410 19" fill="none" xmlns="http://www.w3.org/2000/svg">
<path d="M6.41712 18.4548C5.55031 18.4548 4.72589 18.2841 3.94286 17.9438C3.16915 17.6025 2.49476 17.1341 1.92172 16.5383C1.34867 15.9416 0.934934 15.2569 0.679443 14.4822L3.01405 13.5069C3.20024 14.0406 3.46707 14.5132 3.81565 14.9238C4.16423 15.3262 4.56245 15.6395 5.0124 15.864C5.46856 16.0884 5.94545 16.2011 6.44092 16.2011C6.94466 16.2011 7.40083 16.0884 7.81148 15.864C8.22213 15.6395 8.54689 15.3303 8.7879 14.9352C9.03511 14.5401 9.15925 14.0871 9.15925 13.5762C9.15925 12.995 9.01545 12.5192 8.72893 12.1479C8.44241 11.7683 8.05967 11.4508 7.57972 11.1953C7.10701 10.9316 6.58781 10.6916 6.02304 10.4744C5.45724 10.2583 4.88833 10.0256 4.31529 9.77841C3.74948 9.52192 3.23126 9.21988 2.75855 8.87236C2.28584 8.51555 1.90312 8.07082 1.60832 7.53611C1.3218 7.0014 1.17902 6.33224 1.17902 5.52655C1.17902 4.574 1.39107 3.75691 1.81723 3.07637C2.25167 2.39479 2.84026 1.87149 3.58294 1.50743C4.32666 1.14441 5.16658 0.962402 6.10373 0.962402C6.92502 0.962402 7.66872 1.09783 8.33485 1.36881C8.99996 1.63978 9.57299 2.01527 10.054 2.49517C10.5339 2.96783 10.898 3.50561 11.1452 4.10962L8.89238 5.02703C8.69792 4.64022 8.45792 4.31128 8.1714 4.04031C7.88488 3.76106 7.56009 3.55214 7.19599 3.41252C6.84017 3.26565 6.46367 3.19221 6.06957 3.19221C5.4417 3.19221 4.88001 3.38153 4.38454 3.7611C3.89632 4.14067 3.65327 4.70637 3.65327 5.45724C3.65327 6.03022 3.79599 6.50287 4.08251 6.87417C4.36904 7.23823 4.74867 7.54439 5.22137 7.79158C5.70133 8.0398 6.22368 8.2684 6.78948 8.47732C7.35425 8.68624 7.92007 8.91068 8.48587 9.15063C9.05891 9.39057 9.58126 9.68843 10.054 10.0452C10.5256 10.3938 10.9052 10.8385 11.1918 11.3805C11.4866 11.9152 11.6334 12.5885 11.6334 13.4014C11.6334 14.3933 11.4049 15.2683 10.9477 16.0274C10.4915 16.7855 9.86782 17.3823 9.07755 17.8156C8.29557 18.2418 7.40908 18.4548 6.41712 18.4548ZM19.6261 18.4548C18.3942 18.4548 17.337 18.1021 16.4547 17.3978C15.5713 16.6924 14.8938 15.6861 14.4211 14.3777C13.9494 13.0684 13.7125 11.5087 13.7125 9.69667C13.7125 7.89188 13.9494 6.33641 14.4211 5.02703C14.8938 3.7187 15.5713 2.71544 16.4547 2.01939C17.337 1.31402 18.3942 0.962402 19.6261 0.962402C20.8643 0.962402 21.9296 1.31402 22.8202 2.01939C23.7108 2.71544 24.3925 3.7187 24.8641 5.02703C25.3451 6.33641 25.5851 7.89188 25.5851 9.69667C25.5851 11.5087 25.3451 13.0684 24.8641 14.3777C24.3925 15.6861 23.7108 16.6924 22.8202 17.3978C21.9296 18.1021 20.8643 18.4548 19.6261 18.4548ZM19.6261 16.2011C20.3926 16.2011 21.0391 15.9416 21.5656 15.4234C22.0921 14.9042 22.4913 14.1605 22.7623 13.1925C23.0406 12.2244 23.1761 11.0598 23.1688 9.69667C23.1606 8.33351 23.0137 7.1679 22.7271 6.20087C22.4489 5.2328 22.0455 4.49335 21.519 3.98242C20.9997 3.47046 20.3688 3.215 19.6261 3.215C18.8896 3.215 18.2586 3.47871 17.7321 4.00515C17.2129 4.53159 16.8146 5.27935 16.5354 6.24638C16.2644 7.21445 16.1288 8.36454 16.1288 9.69667C16.1288 11.0288 16.2644 12.182 16.5354 13.1584C16.8146 14.1337 17.2129 14.8845 17.7321 15.411C18.2586 15.9374 18.8896 16.2011 19.6261 16.2011ZM34.6576 18.4548C33.194 18.4548 31.9124 18.0866 30.8118 17.3512C29.7123 16.6159 28.8568 15.5899 28.2455 14.2733C27.6332 12.9567 27.327 11.4311 27.327 9.69667C27.327 7.96945 27.6291 6.45222 28.2331 5.14388C28.8455 3.82727 29.6968 2.80129 30.7891 2.0649C31.8886 1.32954 33.163 0.962402 34.6111 0.962402C35.3238 0.962402 36.0789 1.10511 36.8764 1.3916C37.6811 1.67809 38.3596 2.05767 38.9089 2.53033L38.0028 4.72504C37.6697 4.29892 37.1898 3.94312 36.5629 3.65663C35.9433 3.3629 35.3 3.215 34.6338 3.215C33.6584 3.215 32.8061 3.48598 32.079 4.02794C31.3508 4.57092 30.7849 5.32593 30.3826 6.29297C29.9802 7.26103 29.7785 8.38007 29.7785 9.65014C29.7785 10.943 29.9802 12.0858 30.3826 13.0766C30.7932 14.0602 31.3662 14.8266 32.1017 15.3768C32.8371 15.926 33.7009 16.2011 34.6918 16.2011C35.3352 16.2011 35.9661 16.0501 36.5857 15.7481C37.2126 15.4461 37.7008 15.0624 38.0493 14.598L38.9554 16.77C38.3979 17.2654 37.7245 17.6729 36.9343 17.9894C36.144 18.2996 35.3858 18.4548 34.6576 18.4548ZM45.1824 18.2686V1.14749H47.6442V18.2686H45.1824ZM41.6965 18.2686V16.0853H51.13V18.2686H41.6965ZM41.6965 3.33184V1.14749H51.13V3.33184H41.6965ZM53.2091 18.2686L58.5641 1.14749H61.0269L66.3819 18.2686H63.8146L62.3748 13.3207L62.1534 12.4148L59.8415 4.36509H59.7495L57.4377 12.4148L57.2163 13.3207L55.7765 18.2686H53.2091ZM56.1126 14.0178V11.8459H63.4784V14.0178H56.1126ZM68.9378 18.2686V1.14749H71.4121V16.0274H78.6496V18.2686H68.9378ZM86.5595 18.4548C86.0485 18.4548 85.611 18.2759 85.2469 17.9201C84.891 17.5643 84.7131 17.1227 84.7131 16.5962C84.7131 16.077 84.8869 15.6437 85.2354 15.2951C85.5923 14.9394 86.033 14.7604 86.5595 14.7604C87.0787 14.7604 87.5162 14.9394 87.8731 15.2951C88.2289 15.6437 88.4069 16.077 88.4069 16.5962C88.4069 17.1227 88.2289 17.5643 87.8731 17.9201C87.5162 18.2759 87.0787 18.4548 86.5595 18.4548ZM112.093 18.2686V2.95953H114.556V18.2686H112.093ZM107.574 3.38979V1.14749H119.075V3.38979H107.574ZM123.233 11.5552V9.45262H126.358C126.931 9.45262 127.442 9.32537 127.892 9.06888C128.348 8.81342 128.705 8.45349 128.961 7.9891C129.216 7.52472 129.343 6.98281 129.343 6.36329C129.343 5.42625 129.054 4.69813 128.472 4.17893C127.892 3.6525 127.148 3.38979 126.242 3.38979H123.233V1.14749H126.614C127.574 1.14749 128.441 1.34503 129.216 1.74012C129.998 2.1352 130.618 2.70405 131.075 3.44768C131.539 4.19131 131.771 5.08491 131.771 6.13054C131.771 7.13688 131.539 8.05116 131.075 8.87236C130.609 9.69253 129.956 10.3473 129.112 10.8344C128.268 11.3153 127.268 11.5552 126.114 11.5552H123.233ZM121.537 18.2686V1.14749H123.966V18.2686H121.537ZM129.983 18.2686L126.021 11.1829L127.833 9.70809L132.736 18.2686H129.983ZM135.593 18.2686V1.14749H145.189V3.38979H138.056V8.46489H144.061V10.672H138.056V16.0274H145.189V18.2686H135.593ZM148.105 18.2686V1.14749H149.858L155.388 11.0319L156.434 12.9256H156.527L156.468 9.60362V1.14749H158.837V18.2686H157.096L151.566 8.34905L150.509 6.38601H150.416L150.475 9.75462V18.2686H148.105ZM168.48 18.4548C167.016 18.4548 165.735 18.0866 164.634 17.3512C163.535 16.6159 162.679 15.5899 162.068 14.2733C161.455 12.9567 161.149 11.4311 161.149 9.69667C161.149 7.96945 161.451 6.45222 162.055 5.14388C162.668 3.82727 163.519 2.80129 164.611 2.0649C165.711 1.32954 166.985 0.962402 168.433 0.962402C169.146 0.962402 169.901 1.10511 170.699 1.3916C171.503 1.67809 172.182 2.05767 172.731 2.53033L171.825 4.72504C171.492 4.29892 171.012 3.94312 170.385 3.65663C169.766 3.3629 169.122 3.215 168.456 3.215C167.481 3.215 166.628 3.48598 165.901 4.02794C165.173 4.57092 164.607 5.32593 164.205 6.29297C163.802 7.26103 163.601 8.38007 163.601 9.65014C163.601 10.943 163.802 12.0858 164.205 13.0766C164.615 14.0602 165.189 14.8266 165.924 15.3768C166.659 15.926 167.523 16.2011 168.514 16.2011C169.157 16.2011 169.788 16.0501 170.408 15.7481C171.035 15.4461 171.523 15.0624 171.872 14.598L172.778 16.77C172.22 17.2654 171.547 17.6729 170.757 17.9894C169.966 18.2996 169.208 18.4548 168.48 18.4548ZM174.869 18.2686V1.14749H177.32V8.41937H183.151V1.14749H185.602V18.2686H183.151V10.6492H177.32V18.2686H174.869ZM189.122 18.2686V1.14749H198.718V3.38979H191.585V8.46489H197.59V10.672H191.585V16.0274H198.718V18.2686H189.122ZM207.151 18.4548C206.283 18.4548 205.459 18.2841 204.677 17.9438C203.902 17.6025 203.229 17.1341 202.656 16.5383C202.083 15.9416 201.668 15.2569 201.412 14.4822L203.747 13.5069C203.933 14.0406 204.2 14.5132 204.549 14.9238C204.897 15.3262 205.296 15.6395 205.745 15.864C206.202 16.0884 206.678 16.2011 207.174 16.2011C207.678 16.2011 208.135 16.0884 208.545 15.864C208.955 15.6395 209.281 15.3303 209.521 14.9352C209.769 14.5401 209.892 14.0871 209.892 13.5762C209.892 12.995 209.749 12.5192 209.463 12.1479C209.176 11.7683 208.793 11.4508 208.313 11.1953C207.84 10.9316 207.322 10.6916 206.756 10.4744C206.191 10.2583 205.621 10.0256 205.048 9.77841C204.483 9.52192 203.964 9.21988 203.491 8.87236C203.02 8.51555 202.636 8.07082 202.342 7.53611C202.056 7.0014 201.912 6.33224 201.912 5.52655C201.912 4.574 202.125 3.75691 202.551 3.07637C202.985 2.39479 203.573 1.87149 204.317 1.50743C205.061 1.14441 205.9 0.962402 206.838 0.962402C207.658 0.962402 208.402 1.09783 209.068 1.36881C209.734 1.63978 210.307 2.01527 210.787 2.49517C211.267 2.96783 211.631 3.50561 211.879 4.10962L209.625 5.02703C209.432 4.64022 209.192 4.31128 208.905 4.04031C208.619 3.76106 208.293 3.55214 207.929 3.41252C207.573 3.26565 207.198 3.19221 206.802 3.19221C206.176 3.19221 205.614 3.38153 205.119 3.7611C204.63 4.14067 204.386 4.70637 204.386 5.45724C204.386 6.03022 204.53 6.50287 204.816 6.87417C205.103 7.23823 205.483 7.54439 205.954 7.79158C206.434 8.0398 206.958 8.2684 207.522 8.47732C208.088 8.68624 208.653 8.91068 209.219 9.15063C209.792 9.39057 210.314 9.68843 210.787 10.0452C211.26 10.3938 211.639 10.8385 211.926 11.3805C212.219 11.9152 212.366 12.5885 212.366 13.4014C212.366 14.3933 212.139 15.2683 211.682 16.0274C211.224 16.7855 210.601 17.3823 209.811 17.8156C209.029 18.2418 208.142 18.4548 207.151 18.4548ZM220.383 18.4548C219.871 18.4548 219.433 18.2759 219.069 17.9201C218.713 17.5643 218.535 17.1227 218.535 16.5962C218.535 16.077 218.709 15.6437 219.058 15.2951C219.415 14.9394 219.855 14.7604 220.383 14.7604C220.901 14.7604 221.339 14.9394 221.695 15.2951C222.051 15.6437 222.229 16.077 222.229 16.5962C222.229 17.1227 222.051 17.5643 221.695 17.9201C221.339 18.2759 220.901 18.4548 220.383 18.4548ZM244.37 11.7404V9.51051H247.332C247.945 9.51051 248.478 9.3792 248.923 9.11546C249.378 8.85276 249.74 8.48865 249.989 8.02426C250.247 7.55161 250.371 7.00554 250.371 6.38601C250.371 5.44898 250.082 4.71774 249.503 4.19131C248.923 3.65659 248.158 3.38979 247.205 3.38979H244.37V1.14749H247.379C248.468 1.14749 249.42 1.36059 250.237 1.7867C251.054 2.21282 251.695 2.81265 252.14 3.58732C252.595 4.36094 252.812 5.27107 252.812 6.3167C252.812 7.36958 252.595 8.30254 252.151 9.11546C251.716 9.92943 251.085 10.5717 250.278 11.0443C249.482 11.5087 248.551 11.7404 247.483 11.7404H244.37ZM242.5 18.2686V1.14749H244.963V18.2686H242.5ZM256.029 18.2686V1.14749H265.628V3.38979H258.491V8.46489H264.501V10.672H258.491V16.0274H265.628V18.2686H256.029ZM270.438 11.5552V9.45262H273.562C274.131 9.45262 274.648 9.32537 275.093 9.06888C275.548 8.81342 275.91 8.45349 276.169 7.9891C276.417 7.52472 276.551 6.98281 276.551 6.36329C276.551 5.42625 276.262 4.69813 275.672 4.17893C275.093 3.6525 274.348 3.38979 273.448 3.38979H270.438V1.14749H273.821C274.783 1.14749 275.641 1.34503 276.417 1.74012C277.203 2.1352 277.824 2.70405 278.279 3.44768C278.744 4.19131 278.972 5.08491 278.972 6.13054C278.972 7.13688 278.744 8.05116 278.279 8.87236C277.813 9.69253 277.162 10.3473 276.314 10.8344C275.476 11.3153 274.472 11.5552 273.314 11.5552H270.438ZM268.742 18.2686V1.14749H271.173V18.2686H268.742ZM277.182 18.2686L273.221 11.1829L275.041 9.70809L279.944 18.2686H277.182ZM284.516 11.7404V9.51051H287.474C288.095 9.51051 288.623 9.3792 289.067 9.11546C289.522 8.85276 289.884 8.48865 290.143 8.02426C290.391 7.55161 290.526 7.00554 290.526 6.38601C290.526 5.44898 290.236 4.71774 289.647 4.19131C289.067 3.65659 288.302 3.38979 287.35 3.38979H284.516V1.14749H287.526C288.623 1.14749 289.574 1.36059 290.381 1.7867C291.208 2.21282 291.839 2.81265 292.284 3.58732C292.739 4.36094 292.967 5.27107 292.967 6.3167C292.967 7.36958 292.739 8.30254 292.305 9.11546C291.86 9.92943 291.24 10.5717 290.433 11.0443C289.636 11.5087 288.695 11.7404 287.63 11.7404H284.516ZM282.644 18.2686V1.14749H285.106V18.2686H282.644ZM300.828 18.4548C299.959 18.4548 299.132 18.2841 298.356 17.9438C297.58 17.6025 296.908 17.1341 296.329 16.5383C295.76 15.9416 295.346 15.2569 295.087 14.4822L297.425 13.5069C297.611 14.0406 297.88 14.5132 298.221 14.9238C298.573 15.3262 298.977 15.6395 299.421 15.864C299.877 16.0884 300.352 16.2011 300.849 16.2011C301.356 16.2011 301.811 16.0884 302.225 15.864C302.628 15.6395 302.959 15.3303 303.197 14.9352C303.445 14.5401 303.569 14.0871 303.569 13.5762C303.569 12.995 303.424 12.5192 303.135 12.1479C302.855 11.7683 302.473 11.4508 301.987 11.1953C301.511 10.9316 300.994 10.6916 300.435 10.4744C299.866 10.2583 299.297 10.0256 298.728 9.77841C298.16 9.52192 297.642 9.21988 297.167 8.87236C296.691 8.51555 296.308 8.07082 296.018 7.53611C295.729 7.0014 295.584 6.33224 295.584 5.52655C295.584 4.574 295.801 3.75691 296.225 3.07637C296.66 2.39479 297.249 1.87149 297.994 1.50743C298.739 1.14441 299.577 0.962402 300.518 0.962402C301.335 0.962402 302.08 1.09783 302.742 1.36881C303.414 1.63978 303.983 2.01527 304.459 2.49517C304.945 2.96783 305.307 3.50561 305.555 4.10962L303.3 5.02703C303.104 4.64022 302.866 4.31128 302.576 4.04031C302.297 3.76106 301.966 3.55214 301.604 3.41252C301.252 3.26565 300.87 3.19221 300.477 3.19221C299.856 3.19221 299.287 3.38153 298.79 3.7611C298.304 4.14067 298.066 4.70637 298.066 5.45724C298.066 6.03022 298.201 6.50287 298.49 6.87417C298.78 7.23823 299.163 7.54439 299.628 7.79158C300.115 8.0398 300.632 8.2684 301.201 8.47732C301.759 8.68624 302.328 8.91068 302.897 9.15063C303.466 9.39057 303.993 9.68843 304.459 10.0452C304.935 10.3938 305.317 10.8385 305.597 11.3805C305.897 11.9152 306.041 12.5885 306.041 13.4014C306.041 14.3933 305.814 15.2683 305.359 16.0274C304.904 16.7855 304.273 17.3823 303.487 17.8156C302.7 18.2418 301.821 18.4548 300.828 18.4548ZM314.058 18.4548C313.551 18.4548 313.106 18.2759 312.744 17.9201C312.392 17.5643 312.206 17.1227 312.206 16.5962C312.206 16.077 312.382 15.6437 312.734 15.2951C313.086 14.9394 313.53 14.7604 314.058 14.7604C314.575 14.7604 315.009 14.9394 315.372 15.2951C315.723 15.6437 315.909 16.077 315.909 16.5962C315.909 17.1227 315.723 17.5643 315.372 17.9201C315.009 18.2759 314.575 18.4548 314.058 18.4548ZM339.607 18.2686V11.0671L334.28 1.14749H337.062L339.09 5.21319L340.776 8.65104H340.869L342.555 5.21319L344.582 1.14749H347.365L342.038 11.0671V18.2686H339.607ZM352.971 18.2686V1.14749H355.433V18.2686H352.971ZM349.485 18.2686V16.0853H358.919V18.2686H349.485ZM349.485 3.33184V1.14749H358.919V3.33184H349.485ZM363.087 18.2686V1.14749H372.686V3.38979H365.549V8.46489H371.559V10.672H365.549V16.0274H372.686V18.2686H363.087ZM376.731 18.2686V1.14749H379.203V16.0274H386.443V18.2686H376.731ZM388.988 18.2686V1.14749H393.374C394.729 1.14749 395.929 1.50433 396.963 2.2159C398.008 2.92126 398.815 3.90796 399.394 5.17803C399.973 6.44086 400.263 7.90433 400.263 9.56846C400.263 11.2874 399.973 12.8015 399.404 14.1099C398.835 15.411 398.049 16.4297 397.035 17.1651C396.032 17.9004 394.863 18.2686 393.55 18.2686H388.988ZM391.408 16.0274H393.622C394.45 16.0274 395.174 15.7554 395.805 15.2135C396.436 14.6715 396.932 13.9133 397.294 12.937C397.656 11.9617 397.832 10.8385 397.832 9.56846C397.832 8.33769 397.656 7.26102 397.304 6.33949C396.942 5.41073 396.446 4.68677 395.815 4.16757C395.184 3.64941 394.45 3.38979 393.622 3.38979H391.408V16.0274ZM407.731 18.4548C407.224 18.4548 406.79 18.2759 406.417 17.9201C406.066 17.5643 405.89 17.1227 405.89 16.5962C405.89 16.077 406.066 15.6437 406.407 15.2951C406.769 14.9394 407.203 14.7604 407.731 14.7604C408.248 14.7604 408.693 14.9394 409.044 15.2951C409.406 15.6437 409.582 16.077 409.582 16.5962C409.582 17.1227 409.406 17.5643 409.044 17.9201C408.693 18.2759 408.248 18.4548 407.731 18.4548Z" fill="white"/>
</svg>
