<svg width="31" height="31" viewBox="0 0 31 31" fill="none" xmlns="http://www.w3.org/2000/svg">
<path d="M23.3992 7.76146C22.0076 6.85416 21.0033 5.40247 20.6899 3.71018C20.6223 3.34455 20.5851 2.96826 20.5851 2.58325H16.1438L16.1367 20.3824C16.062 22.3755 14.4215 23.9753 12.4105 23.9753C11.7854 23.9753 11.1969 23.819 10.6787 23.5464C9.49035 22.921 8.67712 21.6754 8.67712 20.242C8.67712 18.1834 10.352 16.5085 12.4105 16.5085C12.7947 16.5085 13.1633 16.5719 13.512 16.6811V12.1471C13.1512 12.0979 12.7846 12.0672 12.4105 12.0672C7.90288 12.0672 4.23584 15.7344 4.23584 20.242C4.23584 23.0076 5.61761 25.4551 7.72564 26.935C9.05345 27.8672 10.6686 28.4166 12.4105 28.4166C16.918 28.4166 20.5851 24.7496 20.5851 20.242V11.2163C22.327 12.4666 24.4612 13.2033 26.764 13.2033V8.76206C25.5235 8.76206 24.3681 8.39327 23.3992 7.76146" fill="white"/>
</svg>
